<mxfile host="app.diagrams.net" modified="2023-04-05T11:09:03.772Z" agent="Mozilla/5.0 (Windows NT 10.0; Win64; x64) AppleWebKit/537.36 (KHTML, like Gecko) Chrome/111.0.0.0 Safari/537.36" version="21.1.4" etag="sTqXiqnVi-r_9kTylc4c" type="github">
  <diagram name="Page-1" id="tsK8tF9R3o7hPljNK58n">
    <mxGraphModel>
      <root>
        <mxCell id="0" />
        <mxCell id="1" parent="0" />
      </root>
    </mxGraphModel>
  </diagram>
</mxfile>
